<svg xmlns="http://www.w3.org/2000/svg" version="1.1" width="50%" height="auto" viewBox="0 0 268 268">

  <circle r="130" cx="134" cy="134" fill="none" stroke="#008B6F" stroke-width="7"/>
  <line x1="47" x2="221" y1="198" y2="198" stroke="black" stroke-width="5"/>
  <polygon points="52,190 134,30 216,190" fill="#008B6F" stroke="black" stroke-width="2"/>
  <text x="134" y="142" font-size="60" text-anchor="middle" 
        font-family='FilmoTypeMajor' stroke="#000" stroke-width="3" fill="#F6F7F3">
    SVG
  </text>

<!--Groups -->
<g transform="translate(45,67) rotate(10 12.5 12.5)">
  <polygon points="12,0 7,10 17,10" fill="#008B6F" stroke-width="1" stroke="black"/>
  <polygon points="5,15 0,25 10,25" fill="#008B6F" stroke-width="1" stroke="black"/>
  <polygon points="20,15 15,25 25,25" fill="#008B6F" stroke-width="1" stroke="black"/>
</g>
<g transform="translate(198,67) rotate(-10 12.5 12.5)">
  <polygon points="12,0 7,10 17,10" fill="#008B6F" stroke-width="1" stroke="black"/>
  <polygon points="5,15 0,25 10,25" fill="#008B6F" stroke-width="1" stroke="black"/>
  <polygon points="20,15 15,25 25,25" fill="#008B6F" stroke-width="1" stroke="black"/>
</g>
<g transform="translate(121.5,211) scale(0.6) translate(8,8)">
  <polygon points="12,0 7,10 17,10" fill="#008B6F" stroke-width="1" stroke="black"/>
  <polygon points="5,15 0,25 10,25" fill="#008B6F" stroke-width="1" stroke="black"/>
  <polygon points="20,15 15,25 25,25" fill="#008B6F" stroke-width="1" stroke="black"/>
</g>
</svg>